<svg xmlns="http://www.w3.org/2000/svg" viewBox="0 0 405.88 162.85"><g id="Livello_2" data-name="Livello 2"><g id="Livello_1-2" data-name="Livello 1"><path d="M55.44,0,60.2,1.65c9.77,3.4,16,11.61,16.41,21.84.17,4.35.1,8.73-.13,13.08-.11,2,0,4.32-2.84,5.53-1-1.09-2-2.18-3-3.32C62.13,29,50.54,27.55,40,35.15c-9.58,6.91-16.42,16.16-22,26.43-3.52,6.56-6.27,13.31-6.92,20.92a31.81,31.81,0,0,0,7.63,24.17c9.78,11.5,22.59,17.55,37.62,18.57,17.14,1.16,33.36-2.63,48.79-10,2.1-1,4.3-1.82,7.51-3.17-.77,4.16-1.11,7.35-2,10.39-2.87,10.11-9.28,17.36-18.25,22.8a77.17,77.17,0,0,1-34.34,11A39.9,39.9,0,0,1,42.32,154C19.75,146.49,6.77,130.77,2,107.81A114.76,114.76,0,0,1,.51,75.06c2-24.36,12-45.33,29.06-62.89A45.64,45.64,0,0,1,49.51,0Z"/><path d="M400.78,51.61a32.43,32.43,0,0,1-1.95-3.21c-3.09-6.72-8.27-9.87-15.84-9-11.93,1.35-21.82,6.37-28.79,17a86.93,86.93,0,0,0,12.1,13.8c3.29,3.08,6.65,6.11,10.13,9,9.06,7.44,15.29,16.51,16.24,28.45.84,10.42.6,20.76-3.88,30.55-9.59,21-36.14,30.73-57,20.87-7.71-3.65-11.95-9.57-11.75-18.32.08-3.52.23-7,0-10.55-.3-4.32,1.56-6.29,5.78-4a82,82,0,0,0,7.72,3.44c16.43,7,35.92,3.33,47.65-9.12,1.41-1.5,2.53-3.27,4.21-5.47-3.51-3.27-6.69-6.41-10.05-9.33-7-6.11-14.29-11.91-21.11-18.2-7.38-6.81-10.37-15.68-11.4-25.54a56.64,56.64,0,0,1,1.93-23.31C350.2,21.43,365.41,9,384.41,8.55c10.09-.23,17.68,5.71,20.1,15.41a47.38,47.38,0,0,1,.12,22.15C404.19,48.09,403.83,50.32,400.78,51.61Z"/><path d="M328.06,58.45a40.51,40.51,0,0,1-2-3.92c-2.46-6.91-7.92-9.62-15-7.43a22.25,22.25,0,0,0-12.36,9.13A140,140,0,0,0,290.84,71c-1.24,2.52-.81,5.14.67,7.62,5.4,9.06,13.09,14.25,23.82,15.41a145.09,145.09,0,0,0,29.54,0,39.11,39.11,0,0,1,5.52.23c.8,8.44-.56,16-6.72,21.3a36.12,36.12,0,0,1-17.56,7.88,79.13,79.13,0,0,1-8.8,1.06,29.06,29.06,0,0,1-23-8.73c-8.43-8.32-12.73-18.52-14.24-30.23a79.73,79.73,0,0,1,5.37-41.21c3.53-8.63,8-16.81,15.81-22.5a29.35,29.35,0,0,1,6.58-3.73c9.64-3.73,19.18.8,22.16,10.7A43.12,43.12,0,0,1,331.42,48c-.36,2.35-.77,4.71-1.36,7C329.81,56,329,56.83,328.06,58.45Z"/><path d="M116.83,79.88a102.42,102.42,0,0,1,4.76-27.31c2.32-7.34,6.69-13.61,11.1-19.68s11.11-6.77,18-5.23C156.86,29,161.5,33,165.33,37.8c6,7.57,8.92,16.41,10.51,25.77a94.86,94.86,0,0,1,.79,25.18c-1.06,10.92-4.27,21.1-11.77,29.55-8.73,9.85-19.35,11.08-30.12,3.62-8.59-5.94-13.5-14.22-15.55-24.17C118,91.88,117.59,85.84,116.83,79.88Zm29.62-22.61c-3.85-.07-7.42.56-9.9,3.37A98.24,98.24,0,0,0,127,72.91a9.75,9.75,0,0,0-.64,10.28,29,29,0,0,0,17.25,14.63,14.69,14.69,0,0,0,13-1.89,27.51,27.51,0,0,0,11.1-14.44,5.29,5.29,0,0,0,.38-2.8,30.28,30.28,0,0,0-11.53-18A16,16,0,0,0,146.45,57.27Z"/><path d="M198.82,23.84c1.58,2.49,3.1,4.32,4,6.41,3.3,7.57,6.38,15.23,9.58,22.84.8,1.91,1.71,3.78,2.88,6.33a68.69,68.69,0,0,0,5.4-6c6.56-9.3,13-18.69,19.48-28,.72-1,1.43-2.09,2.22-3.08a6,6,0,0,1,1.26-.94c2.76.73,3.6,3,4,5.11.87,4.1,1.84,8.3,1.83,12.46-.05,15-.24,30.11-.88,45.15-.28,6.68-1.8,13.3-2.67,20-.82,6.22-1.52,12.46-2.28,18.69-.4,3.27-.52,6.64-3.83,9.23a32.91,32.91,0,0,1-.41-3.8c0-13.38,0-26.75,0-40.13,0-8.3,0-16.61,0-25.68-1.09,1.29-1.77,2-2.39,2.85C232.29,71.49,227.74,78,222.71,84c-6.27,7.55-10.47,6.83-14.34-2.2-2.2-5.14-4.13-10.4-6.19-15.6-.62-1.54-1.3-3-2.2-5.19.8,24.79,1.88,48.88-.7,73.52-2.29-2.19-2.71-4.62-3-7-.69-5-1.2-10-1.86-15-.43-3.33-1.11-6.63-1.47-10-.41-3.77-.75-7.56-.84-11.34-.36-15.2-.68-30.4-.84-45.6,0-3.64.73-7.27.91-10.92C192.36,30.28,196,28,198.82,23.84Z"/><path d="M267.19,118.51c-1.86.93-3,.66-3.31-1.25-1.09-6.61-2.43-13.2-3.17-19.85-2.07-18.81-.37-37.65.07-56.47.1-4.38.66-8.93,4.12-13.15,1,1.61,2.06,2.77,2.4,4.12a43.71,43.71,0,0,1,1.75,9.48c.44,16,.93,32.05.8,48.08-.06,7.79-1.46,15.57-2.23,23.36C267.43,114.75,267.32,116.69,267.19,118.51Z"/><path d="M77.54,43.86l-1.19.63a3.69,3.69,0,0,1-.32-1c0-.11.44-.38.62-.33S77.13,43.53,77.54,43.86Z"/></g></g></svg>