<svg xmlns="http://www.w3.org/2000/svg" viewBox="0 0 206.46 55.42"><g id="Livello_2" data-name="Livello 2"><g id="Livello_1-2" data-name="Livello 1"><path d="M0,21c1.86-4,3.66-8,5.58-11.94,2.5-5.14,7.61-6.83,12.48-8.5A14.93,14.93,0,0,1,25.52.37c7.23,1.49,8,2.81,6.84,10.46A17.59,17.59,0,0,0,8.51,15.22a38,38,0,0,0-4.58,9.93c-3,9,1.1,13.08,9.93,13.49,2.73.13,5.5-.72,8.25-.8,4.76-.15,9.52,0,14.49,0v7.45c-1.23.11-2.49.27-3.76.34-6.39.34-12.78.69-19.17,1a24.3,24.3,0,0,1-4.42-.33c-3.68-.53-6.73-2-8.06-5.77-.12-.34-.78-.51-1.19-.75Z"/><path d="M183.12,55.42C179.81,52,181.56,47.87,181,42.8c2.86,2.69,4.32,5.71,7.8,4.75a57.88,57.88,0,0,0,7.9-2.3c4.44-2,6.34-5.32,6.11-9.85-3.6-3.3-7.51-1.12-11.16-.37-6.16,1.28-7.45.47-7.54-5.65a41.88,41.88,0,0,1,1.74-12.88c1-3.4,3.09-5,5.86-6.42,3.57,1.92,5,4.63,4.32,8.47-6.48-.93-8.86,1.62-8.54,9.58,2.71-.63,5.32-1.22,7.93-1.85,5.29-1.3,8.62-.64,9.56,3.09,1.76,7.06,3,14.55-2.42,20.71-1.88,2.13-5.3,2.93-8,4.37a15.68,15.68,0,0,0-1.48,1Z"/><path d="M166.9,45.42c-3.36-2.16-3.36-2.16-5-21.09-4.35-.8-8.17-.85-11.67,3.05-2,2.18-5.39,3.08-8.88,4.94.65,4.87,1.36,10.28,2.08,15.7l-1.53.21c-3.65-9.46-3.24-19.52-3.76-29.9l-2.15,1c-.13-.22-.4-.45-.38-.66.88-7.76,8-12.35,14.9-9.09,2,1,3.14,3.79,4.67,5.76l-.43,1.26,26-3v7.75l-16.21,1.94C164.05,30.67,168.24,37.73,166.9,45.42ZM140.68,24.35c4-2.15,8.61-2.32,10.15-6.63-4-2.59-7.52-1.71-11,.24Z"/><path d="M110.34,21.05c5-2.07,9.33-4.46,14.77-3.76V23.7c-3.23,1-6.67,2.53-10.26,3.06-3.34.49-3.78,2-3.3,3.88,2.76-.91,5.5-1.88,8.29-2.69,1.08-.32,2.3-.15,3.41-.4,4.07-.91,5.19-.34,5.61,3.52.36,3.39.41,6.81.6,10.33-5.54,3.06-11,4.9-17.88,3.9C109.18,37.59,111.13,29.47,110.34,21.05Zm2.55,15c1.82,3.81,3.32,3.7,13.14-1Z"/><path d="M59.91,31.9c-.23,2.24-.08,4.61-.78,6.71-1.51,4.57-7.79,7.82-12.51,6.85-7-1.45-9.65-5.53-8.8-13.57A15.93,15.93,0,0,1,44.72,20c6.08-4.43,14.15-1,15,7,.16,1.62,0,3.26,0,4.89ZM41.66,36c3.43,2.62,7.17,2.08,10.61,1.45a5.66,5.66,0,0,0,4.34-8c-1.37-3.43-4.43-4.31-8.49-2.64C43.86,28.52,42.18,31.81,41.66,36Z"/><path d="M104.16,36c.43,6.06-.8,9.11-4.11,9.51a31.6,31.6,0,0,1-7.89-.19,18.58,18.58,0,0,1-5.54-1.77c-3.72-1.78-6.24-4.15-6.11-8.92.25-9.3,1.65-11.36,11.74-14.39,3.24,3.12,3.12,4.83-.53,7-2.76,1.65-5.53,3.27-8.3,4.91C87.33,38.05,96.61,39.69,104.16,36Z"/><path d="M78.68,45c-7.17-2.12-6.43-9.23-10.26-13.65l-2.25,7.61-.71-.12c.3-4.44.6-8.89.9-13.22,2.39-.22,2.39-.22,9.51,9.14V21.29h1C79.75,28.77,78.25,36.58,78.68,45Zm-2.52-9c-.12.1-.32.2-.33.31s.18.23.29.35c.11-.11.31-.21.32-.32S76.26,36,76.16,35.92Z"/></g></g></svg>