<svg xmlns="http://www.w3.org/2000/svg" viewBox="0 0 179.04 51.74"><g id="Livello_2" data-name="Livello 2"><g id="Livello_1-2" data-name="Livello 1"><path d="M20.88,0c.16.26.26.68.48.77C26.83,3,27.67,7.19,26.29,13.08,25,11.88,23.93,11,23,10c-2.78-3-6.47-3.76-9.64-1.32-2.26,1.74-4.86,3.74-5.89,6.2C4.45,22.18,2.25,29.79,2,37.75c-.13,4.88,2,6.36,6.91,5s9.87-3.14,14.91-4.34c4.88-1.15,7-4.18,7.42-9.23l-16,.88V22.81c1.58-.08,3-.21,4.47-.23,2.82,0,5.65.19,8.44-.07,5.68-.52,5.79-.62,5.63,5.23a41,41,0,0,1-1.08,10,11.34,11.34,0,0,1-9.22,8.39c-3.8.78-7.52,2-11.24,3.13C7.73,50.67,3.58,50.52,0,47.09V28.45c.67-3,1.27-6.06,2-9.06C3.94,11.71,6.82,4.59,13.92,0Z"/><path d="M156.55,39.19c7,3.17,13.16,3.28,18.54-2.9-1.33-2.31-3.51-2.95-6.06-2.94-3.32,0-6.64.17-9.93-.06a20.75,20.75,0,0,1-6.61-1.4,6.06,6.06,0,0,1-3.09-3.36c-2.39-7.76,3.11-14.75,11.43-14.78h7.77v6.61c-4.81.81-10.38-1.11-14.72,4.16a34,34,0,0,0,4.24,1c4.9.4,9.81.55,14.69,1.05,3.79.39,6,3,6.18,6.78.17,4.4.06,8.63-3.63,12.07-2.68,2.49-5.4,4.17-9.18,3.68a7.41,7.41,0,0,0-1.49,0C155.46,49.69,155.48,46.83,156.55,39.19Z"/><path d="M152.85,36.13c.12,1.61.19,2.86.3,4.11.25,2.68-.17,4.58-3.53,5.22s-6.37,2.28-9.64,3.17A10.53,10.53,0,0,1,126.3,38.32a50.77,50.77,0,0,0,0-5.38c-1.2-9.93,6.61-17.25,16.06-18.13l.54,6.34c-3.18,1.7-6,2.7-8.13,4.48a24.46,24.46,0,0,0-5.3,6.6,4.37,4.37,0,0,0,.49,5.27c2.43,2.76,5.41,4.53,9.08,3.58s7.24-2.61,10.85-3.94C150.73,36.82,151.62,36.54,152.85,36.13Z"/><path d="M82.11,48.22c-3.72-8.91-3.25-18.39-6-27.44l-3,2.71c.59-3.66.42-6.68,1.63-9a5,5,0,0,1,6.79-2.12c2.39,1.16,5.28,2,6.93,3.84,5.09,5.71,2.45,14.52-4.77,17.19a12.29,12.29,0,0,0-2,1.13C84.05,44.16,84.06,44.53,82.11,48.22ZM79.88,26.4c5.16-.9,5.16-.9,7.17-3.73-4.64-3.12-4.64-3.12-8-2.67Z"/><path d="M54.09,46.31,43.73,34.49l-1,.46v11c-1.1-1.24-1.75-1.62-1.79-2.06-.44-5-.76-10-1.16-15-.29-3.69-1-7.39-.81-11.06.07-1.55,1.57-3.5,3-4.37,1-.6,3,.21,4.39.7a2.44,2.44,0,0,1,1.26,1.89c-.24,4,1.83,8.61-2.35,11.44C49.33,33.19,57,36.85,54.09,46.31ZM40.87,23.18l.64.22,1.15-2.25-1.28-.42Z"/><path d="M68.7,49c-.68-3.8-1.35-7.61-2-11.5H59L58.36,45c-.76-.92-1.47-1.38-1.49-1.86-.44-8.84-2.54-17.66-.24-26.55.4-1.57.11-3.74,2.23-3.62a5.24,5.24,0,0,1,3.61,2.69,111.27,111.27,0,0,1,5.75,14.24c1.65,5.37,3,10.9,2.37,16.64-.09.74-.25,1.47-.38,2.21ZM57.44,30.2h7.41c-1.8-3.79-3.39-7.12-5-10.46l-1.3.25Z"/><path d="M104.56,30.22c-.76-4.49-3.33-8.18-1.47-12.36.52,0,1.36-.15,1.44,0a19.42,19.42,0,0,1,1.75,4.86c1.17,9.38,5.43,18.29,5,29-4.56-4.51-4.07-9.56-5.12-13.69l-8.71-.89c.33,4.44.63,8.47,1,13.23-3.35-3.49-6.21-18.06-5.19-27L96,30.22Z"/><path d="M116.27,18.89c3.28,9.71,6.26,19.46,4.73,30C118.22,45.83,114.8,25.56,116.27,18.89Z"/></g></g></svg>