<svg xmlns="http://www.w3.org/2000/svg" viewBox="0 0 380.53 112.61"><g id="Livello_2" data-name="Livello 2"><g id="Livello_1-2" data-name="Livello 1"><path d="M122.38,0c1.36,9.25,0,17.4-.61,25.56s-1.25,16.33-1.92,24.92L147,46.28c1.1-10.27,2.24-20.57,3.27-30.87.57-5.67,1.21-6.56,7-7.93,3-.72,6.1-1.3,9.77-2.07.44,2.19,1.16,3.9,1.05,5.54-.69,10.18-1.55,20.35-2.36,30.53-.82,10.34-1.55,20.69-2.51,31-.51,5.56-1.18,11.13-2.22,16.62-1.1,5.76-4.19,7.36-9.77,5.47-1.55-.53-2.91-1.62-4.45-2.19-2.34-.86-2.74-2.56-2.6-4.73q1-15.28,1.95-30.57a21.17,21.17,0,0,0-.23-2.83c-9.31-.75-18,2.35-27.57,3.21-.71,9.31-1.31,18.48-2.13,27.63-.58,6.39-1.39,12.76-2.26,19.12a19.13,19.13,0,0,1-1.6,4.65c-1.06,2.5-2.8,4.07-5.76,3.67-3.5-.47-5.85-2.3-6.06-5.47a61.31,61.31,0,0,1,.18-10.84c3.26-29.81,6.65-59.6,9.92-89.4.32-2.86,1.49-4.56,4.41-5.1C117.2,1.34,119.38.72,122.38,0Z"/><path d="M278,45.59a61.15,61.15,0,0,0,4.8-5.86c4.12-6.63,10.38-11.14,16.46-15.54,3.24-2.35,8-2.86,12.18-3.57,2.44-.42,4,1.94,4.08,5.7.08,5.08-.12,10.17-.32,15.25-.51,12.81-1.17,25.62-1.62,38.44-.21,6-2.64,10.72-7.62,14.75-2.25-2.07-4.79-3.8-6.46-6.14a10,10,0,0,1-1.3-6c.69-12,1.61-24,2.43-35.92.07-1,0-1.95,0-3.6a29.15,29.15,0,0,0-2.7,2.45c-2.57,3-5.24,6-7.55,9.21-4.09,5.67-9.69,6.9-16.18,6.06-2.45-.32-4.92-.47-7.43-.71,0,3.48.15,7-.05,10.57a29.69,29.69,0,0,1-1.22,7.7c-1.28,3.89-3.21,5-6.62,4.54-4.51-.58-7.21-2.65-7.58-6.49-.58-6.23-.68-12.51-1.23-18.74-.77-8.68-1.61-17.36-2.74-26-.32-2.41.4-3.43,2.46-3.94,3.54-.88,7.09-1.7,10.64-2.54,2.8-.66,4.41,1.1,5.74,3,3.08,4.5,6,9.1,9,13.63C276,43,276.79,44,278,45.59Z"/><path d="M350.87,63.19c-.52,9.8-1,19.59-1.59,30,8.39-.18,17.5-3.4,26.79-1.85.14,4.43-.43,5.31-3.86,6.17-10.85,2.73-21.74,5.28-32.86,6.58-4.74.55-9.61.81-14.56-2.68l4.71-4.82c-3-2.58-2.74-6.16-2.59-9.81Q328,59.39,329,32c0-1-.1-2-.17-3.19l-5-2.46c.43-3.38,3.34-4.37,5.81-5.22,7.48-2.58,15-5.09,22.66-7.1,6.52-1.72,13.23-2.74,19.87-4,3.26-.63,6.28-.42,8.39,3.31-9.5,5.74-20.55,7-30.48,11.4.34,8.94.69,17.88,1,26.76,9.46,1.56,18.51-2.78,27.81-.72C371.8,60,360.79,59.79,350.87,63.19Z"/><path d="M213.47,95c-11.18,0-20.48-4.49-28.79-11.57-10-8.56-11.1-29.09-6.47-38.24,2.92-5.8,7.31-9.8,13.58-11.41,5.41-1.39,11-2.15,16.45-3.44,12.58-3,27.74,6.17,32.12,19.88,2.9,9.11,3.45,18.22-1.41,26.79-2.66,4.69-6.11,9-9.4,13.27-2.87,3.78-7.41,4-11.61,4.68A26.65,26.65,0,0,1,213.47,95Zm2.6-6.4c5.74-7.5,5.09-15.26,4.41-22.72-.88-9.63-4.68-18.14-12.81-24.14-3.59-2.65-6.15-2.39-8.95,1.06a12.54,12.54,0,0,0-2.43,4.78,53.41,53.41,0,0,0-1.59,9.72c-.53,9.64,1.64,18.45,9.83,24.57C208,84.48,212.14,86.32,216.07,88.58Z"/><path d="M89.09,46.87c-1.64,5.22-3.79,9.18-8.75,10.55C73.68,59.25,67,61.11,60.21,62.3,51,63.91,41.64,64.9,31.87,66.22l6.64,4.65c4.8,3.38,4.78,3.37,2.6,8.59-.51,1.21-.9,2.47-1.47,4.06-4.73.6-9.16-.79-13.41-2.47a55.27,55.27,0,0,1-9.69-5C11.38,72.7,6.75,68.44,0,68.3,5.37,56.47,31,40.82,42.06,44.77,41.94,48,39.55,50,37.82,52.26s-4,3.78-6,5.64l.46,1Z"/></g></g></svg>