<svg xmlns="http://www.w3.org/2000/svg" viewBox="0 0 270.24 54.26"><g id="Livello_2" data-name="Livello 2"><g id="Livello_1-2" data-name="Livello 1"><g id="Tavola_da_disegno_1" data-name="Tavola da disegno 1"><path d="M2.38,54.26c-2.87-2-2.51-4.89-2.11-7.67C1,41.62,2,36.7,2.74,31.74,4,23.6,5.31,15.47,6.38,7.31c.79-6,2-7.14,9.14-7.31a53.21,53.21,0,0,1,0,7.58c-1.94,13-4,26-6.18,38.88-.46,2.69-2,5.2-3,7.8Z"/><path d="M198.4,15.87c-.46,2-1.66,2.76-3.69,2.69-3.76-.12-7.53,0-11.42,0,0,5.64,0,10.91,0,16.18,0,1.55-.1,3.1-.22,4.65a2.36,2.36,0,0,1-2.82,2.46c-1.81-.11-2.53-1.1-2.53-2.79,0-7,0-14,0-21.11h-8c0,1,0,2,0,2.95.21,6.84.45,13.69.64,20.53a8.57,8.57,0,0,1-.39,2.66,3.05,3.05,0,0,1-3.5,2.39,2.79,2.79,0,0,1-2.9-3c-.19-3.1-.34-6.2-.47-9.3-.06-1.41,0-2.82,0-4.49H159c-.65,4-1.3,8-1.94,11.91-7,.6-12.31-2.42-17.52-5.61l-1.74,4.94-5,.37C130,33.45,130.46,25.42,131,17l-7.75,1.66q-.44,7.5-.88,15c-.06,1,0,2.07-.07,3.1-.33,4.36-1.74,5.36-5.82,3.83-1.48-7.14.68-14.39.81-22.14h-8.06c-.57-2.59-.13-4,2.27-4.79A106,106,0,0,1,134,9.3c3.62-.33,4.23.49,4.32,4.4,4.26-.19,7.2,1.92,8.38,5.88,1.55,5.22-1.92,8.07-6.39,10.66L152,36c.23-2,.4-3.63.59-5.37l-4-1.27-.19-.8,4.21-2.11c.45-2.9.92-6.08,1.46-9.24a31.19,31.19,0,0,1,1-4.15c1.28-4.19,4.41-6.49,8.72-6a4.63,4.63,0,0,1,2.82,2.15,41.6,41.6,0,0,1,2.43,5.6c4.85-2.36,10-1.8,15-1.61S194.28,11.54,198.4,15.87Zm-39.26,9.82,3.82-.51c-.47-3.06-.88-5.77-1.29-8.49l-1,0C160.2,19.44,159.73,22.22,159.14,25.69Zm-20-.29c1.91-2.83,1.91-2.95,0-5.54Z"/><path d="M232.29,47.84l5.54-4.9c-6.27-.07-5.34-6-8.08-8.82-2.07,2.3-.66,8.1-6.89,6.37.49-8.87,1-17.69,1.5-27l7-1.79c.94,2.37,1.82,4.57,2.69,6.78h.58c.35-2.7.7-5.39,1.06-8.09.14-1,.35-2,.5-3,.43-3,2-4.95,5.25-5.25,1.63-.15,3.24-.52,5.24-.86-1.29,7.26-3,14-2.44,21.47,6-6.52,11.07-13.45,20.53-13.34l.61.8a15.8,15.8,0,0,1-2.66,2.14c-6.25,3.17-9.83,8.42-12.83,15.47,3.29-.34,5.77-.46,8.21-.86,9.45-1.57,12.3.85,12.07,10.19-.12,4.91-3.23,7.83-7,10a28.85,28.85,0,0,1-14.86,4.08c-3.26,0-6.54.06-9.8,0A7,7,0,0,1,232.29,47.84Zm7.2-4.4,0,1c1.56.72,3.07,1.9,4.69,2.05a31.55,31.55,0,0,0,9-.2c6.84-1.35,10.16-7.07,8.15-13.38-.83-2.6-1.53-3-4.3-2.39-4.4.95-8.79,1.81-13.24.67C242.51,35.56,244.23,40.53,239.49,43.44Z"/><path d="M69.49,12.86c-.29,3.89-.56,7.47-.81,11.06-.29,4.25-.69,8.51-.81,12.77-.07,2.56.28,5.14,2.77,7.38C79,33.52,79,21.58,77.73,8.78c1.37-.34,2.93-.8,4.52-1.09,2.73-.51,3.88.07,4,2.64.55,10.54.1,20.94-5.6,30.37-.47.77-1,1.49-1.52,2.26-3.24,5.24-8.36,6-13.71,4.9-3.45-.69-4.81-3.93-5-7.16a64.38,64.38,0,0,1,.33-10.84c.51-4.35,1.38-8.67,2.26-13C63.74,13.43,64.76,12.82,69.49,12.86Z"/><path d="M92.75,38.41c1.24,3.6,1.86,4,4.85,3,3.55-1.14,6.47-3.12,7.08-7,.81-5.15-.65-8.88-8.61-9.68A28.92,28.92,0,0,1,90.7,24c-3.55-1.06-4.3-3.44-2.28-6.5a4.65,4.65,0,0,1,.72-.92c4.77-4.29,9.87-8,16.3-9.55a15.75,15.75,0,0,1,2.42,0,33.3,33.3,0,0,1-3.22,3.34c-2.48,1.87-5.17,3.49-7.59,5.45-1.2,1-2,2.47-3.14,4A17.71,17.71,0,0,0,102,21.63c5.56.26,9,2.37,10.44,6.62,1.71,4.87.15,8.82-3.52,12.2-3.49,3.22-7.78,4.66-12.35,5.19a42.63,42.63,0,0,1-8.22-.09c-1.56-.12-3.2-.79-3.38-2.68s1.39-2.3,2.75-2.79C89.27,39.52,90.87,39,92.75,38.41Z"/><path d="M26.81,48.32l20.35-2C47,49.4,44.93,50,43,50.25c-5,.67-10,1.12-15.05,1.68a6.16,6.16,0,0,0-2.6.54c-2,1.35-3.94.94-6.48-.09.44-2.78.81-5.66,1.39-8.51,1.68-8.34,3.56-16.64,5.08-25,.43-2.34,2.62-3.56,4.85-3.56,2.07,0,2.12,1.66,1.93,3.09-.55,4.08-1.15,8.16-1.87,12.22C29.18,36.29,28,41.94,26.81,48.32Z"/><path d="M221,29.12c-.08,5.66-2.67,10.19-6.81,13.84a9.86,9.86,0,0,1-10.55,1.85,4.59,4.59,0,0,1-3.17-4c-.21-1.63-.93-3.2-1-4.83-.13-2-.35-4.19.36-6,2.35-5.84,9-9.33,15.63-8.63C219.53,21.8,221.14,24,221,29.12Zm-9.67-4.57A23.88,23.88,0,0,0,208,28.43a18.72,18.72,0,0,0-2.17,10.81,3.47,3.47,0,0,0,1.64,2.62,3.64,3.64,0,0,0,3-1A14.16,14.16,0,0,0,214.72,30C214.63,27.93,214.64,25.82,211.34,24.55Z"/><path d="M46.75,15.64c1.5,8-.49,15.31-2.16,23.37l12.26-2.69.52.82c-1,1-1.86,2.49-3.09,2.94C49,42,43.63,43.22,37.55,42.28c.7-2.69,1.48-5.12,1.94-7.6q1.35-7.23,2.37-14.51C42.31,17,42.53,16.58,46.75,15.64Z"/><path d="M186.35,47.47c.33-3.62.63-7,1-10.48.42-4.25.92-8.48,1.29-12.73.36-4.07.46-4.21,5.34-4.66a17.9,17.9,0,0,1,.68,4c-.4,7.22-.85,14.44-1.49,21.64C192.89,48.12,191.63,48.49,186.35,47.47Z"/></g></g></g></svg>