<svg xmlns="http://www.w3.org/2000/svg" viewBox="0 0 155.43 27.88"><defs><style>.cls-1{fill:#efe3dd;}</style></defs><g id="Livello_2" data-name="Livello 2"><g id="Livello_1-2" data-name="Livello 1"><path class="cls-1" d="M20.44,26.8a20.65,20.65,0,0,1-6.72,1.08A14,14,0,0,1,3.88,24,13.78,13.78,0,0,1,0,14.16,14.26,14.26,0,0,1,4,4,13.79,13.79,0,0,1,14.08,0a20.14,20.14,0,0,1,6.36,1l.28,10.16a8.45,8.45,0,0,0-5.64-2.64A5.25,5.25,0,0,0,11.2,10.2,5.65,5.65,0,0,0,9.8,14a5.28,5.28,0,0,0,1.56,3.84,5.51,5.51,0,0,0,4,1.52,7.46,7.46,0,0,0,5.4-2.52Z"/><path class="cls-1" d="M49.52,23.6a15.24,15.24,0,0,1-11.08,4.28A15.24,15.24,0,0,1,27.36,23.6a13.6,13.6,0,0,1-3.72-9.68,13.57,13.57,0,0,1,3.72-9.64A15.24,15.24,0,0,1,38.44,0,15.24,15.24,0,0,1,49.52,4.28a13.61,13.61,0,0,1,3.71,9.64A13.64,13.64,0,0,1,49.52,23.6ZM35,10a6,6,0,0,0-1.52,4,5.67,5.67,0,0,0,1.52,4,5.13,5.13,0,0,0,7,0,5.59,5.59,0,0,0,1.52-4,5.43,5.43,0,0,0-1.52-4A4.83,4.83,0,0,0,38.44,8.6,4.63,4.63,0,0,0,35,10Z"/><path class="cls-1" d="M55.8,27.28,60.12.6h10L73.2,11.52a19.84,19.84,0,0,1,.6,3.08H74a11.56,11.56,0,0,1,.52-3.08L77.68.6h9.87l4.36,26.68H82.59l-1.19-12a22.82,22.82,0,0,1-.16-2.64h-.16c-.12.68-.36,1.72-.52,2.24l-4,12.36H70.92L67.36,15.6a11.13,11.13,0,0,1-.52-2.92h-.28c0,.52,0,1.56,0,2.08L65.2,27.28Z"/><path class="cls-1" d="M96.2,27.28V.6h9.68V27.28Z"/><path class="cls-1" d="M130.48,26.8a20.65,20.65,0,0,1-6.72,1.08A14,14,0,0,1,113.92,24,13.78,13.78,0,0,1,110,14.16,14.26,14.26,0,0,1,114,4a13.79,13.79,0,0,1,10.08-4,20.14,20.14,0,0,1,6.36,1l.27,10.16a8.4,8.4,0,0,0-5.63-2.64,5.25,5.25,0,0,0-3.88,1.64,5.65,5.65,0,0,0-1.4,3.8,5.28,5.28,0,0,0,1.56,3.84,5.51,5.51,0,0,0,4,1.52,7.41,7.41,0,0,0,5.39-2.52Z"/><path class="cls-1" d="M152,9.12a10.38,10.38,0,0,0-5.44-2,3.18,3.18,0,0,0-1.84.48,1.09,1.09,0,0,0-.48,1c0,.56.08,1.08,1.56,1.4l3.08.68a9,9,0,0,1,4.55,2.28,7.12,7.12,0,0,1,2,5.28,8.59,8.59,0,0,1-2.4,6.28c-1.51,1.56-4.39,3.4-9.39,3.4a22.18,22.18,0,0,1-9.08-2.08l-.88-.36,2.92-7.52,1,.8a9.4,9.4,0,0,0,5.4,2,3.31,3.31,0,0,0,2.08-.48,1.43,1.43,0,0,0,.52-1.2,1.29,1.29,0,0,0-.32-.92,3.62,3.62,0,0,0-1.84-.64L141.12,17a8.05,8.05,0,0,1-4.64-2.28,6.66,6.66,0,0,1-1.92-4.92,8.63,8.63,0,0,1,2.6-6.36c2-2.08,5-3.44,9.28-3.44a15,15,0,0,1,8.11,2.32Z"/></g></g></svg>