<svg xmlns="http://www.w3.org/2000/svg" viewBox="0 0 362.46 48.79"><defs><style>.cls-1{fill:#efe3dd;}</style></defs><g id="Livello_2" data-name="Livello 2"><g id="Livello_1-2" data-name="Livello 1"><path class="cls-1" d="M24.92,20.58H51.18v1.05c0,5.74-.49,13.51-6.1,19.53-4.62,5-12.11,7.63-19.81,7.63-9.8,0-15.75-3.91-19.25-7.7C1.61,36.33,0,30.66,0,24.5,0,16,3.29,10.57,6.44,7.35,10.22,3.43,16.66,0,26,0A28,28,0,0,1,39.76,3.29a21.79,21.79,0,0,1,9,8.61L32.9,17.78a7.29,7.29,0,0,0-6.44-3.57,8.71,8.71,0,0,0-5.95,2.17,11.83,11.83,0,0,0-3.43,8.82,11.77,11.77,0,0,0,3.08,8.33,7.78,7.78,0,0,0,5.53,2.1c2.52,0,5.81-.91,6.93-4h-7.7Z"/><path class="cls-1" d="M58.38,47.75V1.05H79.45c4.9,0,10,.56,14.28,4.83,2.38,2.38,4.41,6,4.41,11.48,0,4.13-1.26,6.72-2.59,8.33a11.15,11.15,0,0,1-6.44,3.71v.42A6.56,6.56,0,0,1,91.56,32l10.5,15.76H82.53L75.81,34.09a7.64,7.64,0,0,1-.63-1.47l-.28.14v15ZM74.9,21.84h2a5.55,5.55,0,0,0,3.57-1.05,3.68,3.68,0,0,0,1.19-2.87,4.21,4.21,0,0,0-.91-2.8,3.7,3.7,0,0,0-2.87-1.26H74.9Z"/><path class="cls-1" d="M122.64,41.93l-1.26,5.82H103.46l16.17-46.7h18.76l16.66,46.7h-18l-1.54-5.82Zm6.86-25.27h-.63a24.3,24.3,0,0,1-.77,5.25l-2.31,9h6.79l-2.17-9A51.72,51.72,0,0,1,129.5,16.66Z"/><path class="cls-1" d="M159.74,47.75V1.05h22.4c7.42,0,11.69,3,13.65,4.9a16.72,16.72,0,0,1,4.76,12.25c0,3.85-.84,8.26-4.62,11.69s-7.91,3.78-11.48,3.78h-8.19V47.75Zm16.52-25.84h2.87a5.3,5.3,0,0,0,3.78-1.26A3.65,3.65,0,0,0,184,17.78a3.48,3.48,0,0,0-1.26-2.87,5.87,5.87,0,0,0-3.43-1.05h-3.08Z"/><path class="cls-1" d="M206.43,47.75V1.05h16.31V16.87H233.1V1.05h16.31v46.7H233.1V31.5H222.74V47.75Z"/><path class="cls-1" d="M258.79,47.75V1.05h16.94v46.7Z"/><path class="cls-1" d="M318.78,46.91A35.86,35.86,0,0,1,307,48.79,24.51,24.51,0,0,1,289.8,42,24.11,24.11,0,0,1,283,24.78a25,25,0,0,1,7-17.71A24.13,24.13,0,0,1,307.65,0a35.25,35.25,0,0,1,11.13,1.82l.49,17.78c-2-2-5.6-4.62-9.87-4.62a9.18,9.18,0,0,0-6.79,2.87,9.88,9.88,0,0,0-2.45,6.65,9.25,9.25,0,0,0,2.73,6.72,9.65,9.65,0,0,0,6.93,2.66,13,13,0,0,0,9.45-4.41Z"/><path class="cls-1" d="M356.37,16c-2-1.4-5.74-3.5-9.52-3.5a5.57,5.57,0,0,0-3.22.84,1.91,1.91,0,0,0-.84,1.68c0,1,.14,1.89,2.73,2.45l5.39,1.19a15.77,15.77,0,0,1,8,4,12.47,12.47,0,0,1,3.57,9.24,15,15,0,0,1-4.2,11c-2.66,2.74-7.7,5.95-16.45,5.95-7.14,0-11.9-2-15.89-3.63l-1.54-.64,5.11-13.16,1.82,1.4a16.45,16.45,0,0,0,9.45,3.43c2.31,0,3.29-.56,3.64-.84a2.5,2.5,0,0,0,.91-2.1,2.26,2.26,0,0,0-.56-1.61c-.56-.56-1.47-.77-3.22-1.12l-4.13-.77a14.09,14.09,0,0,1-8.12-4,11.65,11.65,0,0,1-3.36-8.61A15.11,15.11,0,0,1,330.47,6c3.57-3.64,8.82-6,16.24-6a26.38,26.38,0,0,1,14.21,4.06Z"/></g></g></svg>