<svg xmlns="http://www.w3.org/2000/svg" xmlns:xlink="http://www.w3.org/1999/xlink" viewBox="0 0 257.23 41.82"><defs><style>.cls-1{fill:none;}.cls-2{fill:#efe3dd;}</style><symbol id="Freccia_26" data-name="Freccia 26" viewBox="0 0 45.72 26.28"><rect class="cls-1" width="45.72" height="26.28"/><polygon class="cls-2" points="45.72 6.8 22.79 6.8 22.79 0 0 13.14 22.79 26.28 22.79 19.48 45.72 19.48 45.72 6.8"/></symbol></defs><g id="Livello_2" data-name="Livello 2"><g id="Livello_1-2" data-name="Livello 1"><path class="cls-2" d="M78,40.92V.9h14V14.46h8.88V.9h14v40h-14V27H91.93V40.92Z" transform="translate(0)"/><path class="cls-2" d="M159.85,35.4c-3.42,3.48-9,6.42-16.62,6.42S130,38.88,126.61,35.4A20.4,20.4,0,0,1,121,20.88a20.36,20.36,0,0,1,5.58-14.46C130,2.94,135.61,0,143.23,0s13.2,2.94,16.62,6.42a20.36,20.36,0,0,1,5.58,14.46A20.4,20.4,0,0,1,159.85,35.4ZM138,14.94a9,9,0,0,0-2.28,6A8.5,8.5,0,0,0,138,26.88a7.7,7.7,0,0,0,10.44,0,8.39,8.39,0,0,0,2.28-5.94,8.14,8.14,0,0,0-2.28-6,7.24,7.24,0,0,0-5.22-2A6.94,6.94,0,0,0,138,14.94Z" transform="translate(0)"/><path class="cls-2" d="M169.27,40.92l6.48-40h14.94l4.68,16.38a29.75,29.75,0,0,1,.9,4.62h.36a17.33,17.33,0,0,1,.78-4.62L202.09.9h14.82l6.54,40h-14L207.67,23a38,38,0,0,1-.24-4h-.24c-.18,1-.54,2.58-.78,3.36l-5.94,18.54H192L186.61,23.4a16.7,16.7,0,0,1-.78-4.38h-.42c0,.78,0,2.34-.06,3.12l-2,18.78Z" transform="translate(0)"/><path class="cls-2" d="M229.87,40.92V.9h27v11H244.39V15.6h11.34V26.1H244.39v3.84h12.84v11Z" transform="translate(0)"/><use width="45.72" height="26.28" transform="translate(0 3.16) scale(1.38)" xlink:href="#Freccia_26"/></g></g></svg>