<svg xmlns="http://www.w3.org/2000/svg" viewBox="0 0 310.79 27.88"><defs><style>.cls-1{fill:#efe3dd;}</style></defs><g id="Livello_2" data-name="Livello 2"><g id="Livello_1-2" data-name="Livello 1"><path class="cls-1" d="M0,27.28V.6H9.68V27.28Z"/><path class="cls-1" d="M15,27.28V.6h9.68V18.68h8.16v8.6Z"/><path class="cls-1" d="M36.12,27.28V.6H45.8V18.68H54v8.6Z"/><path class="cls-1" d="M56.8.6h9.6V16.08a3.84,3.84,0,0,0,.84,2.72,2.42,2.42,0,0,0,1.92.72,2.64,2.64,0,0,0,2-.64,4.17,4.17,0,0,0,.72-2.8V.6h9.63V17a10.62,10.62,0,0,1-2.8,7.6c-2.71,2.8-6.55,3.32-9.51,3.32-2.44,0-6.88-.24-9.92-3.52a9.42,9.42,0,0,1-2.44-6.72Z"/><path class="cls-1" d="M103.92,9.12a10.35,10.35,0,0,0-5.44-2,3.18,3.18,0,0,0-1.84.48,1.09,1.09,0,0,0-.48,1c0,.56.08,1.08,1.56,1.4l3.08.68a8.92,8.92,0,0,1,4.55,2.28,7.14,7.14,0,0,1,2.05,5.28,8.64,8.64,0,0,1-2.4,6.28c-1.52,1.56-4.4,3.4-9.4,3.4a22.18,22.18,0,0,1-9.08-2.08l-.88-.36,2.92-7.52,1,.8a9.4,9.4,0,0,0,5.4,2,3.31,3.31,0,0,0,2.08-.48A1.43,1.43,0,0,0,97.6,19a1.29,1.29,0,0,0-.32-.92,3.62,3.62,0,0,0-1.84-.64L93.08,17a8.05,8.05,0,0,1-4.64-2.28A6.66,6.66,0,0,1,86.52,9.8a8.63,8.63,0,0,1,2.6-6.36c2-2.08,5-3.44,9.28-3.44a15.07,15.07,0,0,1,8.12,2.32Z"/><path class="cls-1" d="M114.6,27.28V9l-5.44.24V.6h20.4V9.28L124.12,9V27.28Z"/><path class="cls-1" d="M132.92,27.28V.6h12c2.79,0,5.71.32,8.15,2.76a8.83,8.83,0,0,1,2.52,6.56,7.2,7.2,0,0,1-1.48,4.76,6.37,6.37,0,0,1-3.68,2.12V17a3.75,3.75,0,0,1,1.4,1.24l6,9H146.71l-3.83-7.8a4.36,4.36,0,0,1-.36-.84l-.16.08v8.56Zm9.44-14.8h1.12a3.17,3.17,0,0,0,2-.6,2.14,2.14,0,0,0,.68-1.64,2.41,2.41,0,0,0-.52-1.6A2.12,2.12,0,0,0,144,7.92h-1.68Z"/><path class="cls-1" d="M169.64,24l-.72,3.32H158.68L167.92.6h10.71l9.52,26.68H177.87L177,24Zm3.92-14.44h-.36a13.89,13.89,0,0,1-.44,3l-1.32,5.12h3.87l-1.23-5.12A27,27,0,0,1,173.56,9.52Z"/><path class="cls-1" d="M192.68,27.28V9l-5.44.24V.6h20.39V9.28L202.19,9V27.28Z"/><path class="cls-1" d="M210.6,27.28V.6h9.68V27.28Z"/><path class="cls-1" d="M250.31,23.6a16.47,16.47,0,0,1-22.15,0,13.6,13.6,0,0,1-3.72-9.68,13.57,13.57,0,0,1,3.72-9.64,16.47,16.47,0,0,1,22.15,0A13.57,13.57,0,0,1,254,13.92,13.6,13.6,0,0,1,250.31,23.6ZM235.75,10a6,6,0,0,0-1.52,4,5.67,5.67,0,0,0,1.52,4,5.13,5.13,0,0,0,7,0,5.59,5.59,0,0,0,1.52-4,5.43,5.43,0,0,0-1.52-4,4.83,4.83,0,0,0-3.48-1.36A4.63,4.63,0,0,0,235.75,10Z"/><path class="cls-1" d="M258.2,27.28V.6h9.23l6.2,10.08a28.74,28.74,0,0,1,2.52,4.72h.28a31.32,31.32,0,0,1-.84-6.32V.6h9.28V27.28h-9.28L269,16.76a35.51,35.51,0,0,1-1.84-3.48h-.28a32.89,32.89,0,0,1,.6,4.92v9.08Z"/><path class="cls-1" d="M307.31,9.12a10.35,10.35,0,0,0-5.44-2A3.18,3.18,0,0,0,300,7.6a1.09,1.09,0,0,0-.48,1c0,.56.08,1.08,1.56,1.4l3.08.68a9,9,0,0,1,4.56,2.28,7.12,7.12,0,0,1,2,5.28,8.59,8.59,0,0,1-2.4,6.28c-1.52,1.56-4.4,3.4-9.4,3.4a22.17,22.17,0,0,1-9.07-2.08l-.88-.36L292,17.92l1,.8a9.36,9.36,0,0,0,5.39,2,3.31,3.31,0,0,0,2.08-.48A1.43,1.43,0,0,0,301,19a1.29,1.29,0,0,0-.32-.92,3.62,3.62,0,0,0-1.84-.64L296.47,17a8,8,0,0,1-4.63-2.28,6.66,6.66,0,0,1-1.92-4.92,8.63,8.63,0,0,1,2.6-6.36c2-2.08,5-3.44,9.27-3.44a15.07,15.07,0,0,1,8.12,2.32Z"/></g></g></svg>